<svg width="400" height="400" viewBox="0 0 400 400" fill="none" xmlns="http://www.w3.org/2000/svg">
	<rect width="400" height="400" fill="white"/>
	<path d="M287.554 146.12V305.987C287.55 308.093 286.749 310.112 285.326 311.601C283.904 313.091 281.976 313.929 279.964 313.934H115.665C113.654 313.929 111.726 313.09 110.303 311.601C108.881 310.112 108.08 308.093 108.075 305.987V146.12C108.077 144.013 108.877 141.992 110.3 140.502C111.723 139.012 113.653 138.175 115.665 138.173H279.964C281.977 138.175 283.907 139.012 285.33 140.502C286.753 141.992 287.553 144.013 287.554 146.12Z" fill="#F1262E"/>
	<path d="M209.422 314.738H186.206C184.219 314.763 182.305 313.961 180.882 312.51C179.459 311.059 178.644 309.076 178.616 306.997V141.162C178.644 139.083 179.459 137.1 180.882 135.649C182.305 134.198 184.219 133.397 186.206 133.421H209.422C211.408 133.397 213.322 134.198 214.745 135.649C216.168 137.1 216.983 139.083 217.012 141.162V306.997C216.983 309.076 216.168 311.059 214.745 312.51C213.322 313.961 211.408 314.763 209.422 314.738V314.738Z" fill="#3F3D56"/>
	<path d="M193.033 88.1331C204.965 98.9462 201.198 123.97 201.198 123.97C201.198 123.97 178.084 131.463 166.152 120.65C154.22 109.837 157.988 84.8127 157.988 84.8127C157.988 84.8127 181.101 77.3201 193.033 88.1331Z" fill="#3F3D56"/>
	<path d="M232.666 118.577C222.376 131.104 198.463 127.237 198.463 127.237C198.463 127.237 191.235 103.061 201.525 90.5343C211.816 78.0078 235.728 81.8744 235.728 81.8744C235.728 81.8744 242.957 106.051 232.666 118.577Z" fill="#3F3D56"/>
	<path opacity="0.2" d="M287.554 146.12V173.036L108.075 172.241V146.12C108.077 144.013 108.877 141.992 110.3 140.502C111.723 139.012 113.653 138.175 115.665 138.173H279.964C281.977 138.175 283.907 139.012 285.33 140.502C286.753 141.992 287.553 144.013 287.554 146.12V146.12Z" fill="black"/>
	<path d="M306.88 162.484C306.17 163.461 305.252 164.253 304.2 164.796C303.147 165.339 301.989 165.619 300.816 165.614L100.801 164.735C99.8042 164.731 98.8181 164.521 97.8988 164.118C96.9796 163.714 96.1452 163.125 95.4433 162.384C94.7415 161.643 94.1859 160.765 93.8084 159.799C93.4308 158.833 93.2386 157.799 93.2427 156.756V156.756L93.3365 133.383C93.3448 131.276 94.1522 129.259 95.5812 127.775C97.0101 126.291 98.9436 125.462 100.956 125.471H100.958L300.972 126.349C301.969 126.353 302.955 126.563 303.875 126.966C304.794 127.37 305.628 127.959 306.33 128.7C307.032 129.441 307.587 130.319 307.965 131.285C308.343 132.251 308.535 133.285 308.531 134.328V134.328L308.437 157.701C308.432 159.43 307.885 161.111 306.88 162.484V162.484Z" fill="#F1262E"/>
	<path d="M179.097 123.948L178.936 166.018L217.331 166.179L217.492 124.109L179.097 123.948Z" fill="#3F3D56"/>
</svg>
