<svg width="360" height="800" viewBox="0 0 360 800" fill="none" xmlns="http://www.w3.org/2000/svg">
	<rect width="360" height="800" fill="white"/>
	<path d="M228.219 495.309V584.89C228.217 586.07 227.771 587.201 226.98 588.035C226.188 588.87 225.115 589.34 223.996 589.342H132.572C131.452 589.34 130.379 588.87 129.588 588.035C128.796 587.201 128.351 586.07 128.348 584.89V495.309C128.349 494.128 128.794 492.996 129.586 492.161C130.378 491.326 131.452 490.857 132.572 490.856H223.996C225.116 490.857 226.19 491.326 226.982 492.161C227.774 492.996 228.219 494.128 228.219 495.309Z" fill="#F1262E"/>
	<path d="M184.743 589.793H171.824C170.719 589.807 169.653 589.358 168.862 588.544C168.07 587.731 167.617 586.62 167.601 585.455V492.531C167.617 491.365 168.07 490.254 168.862 489.441C169.653 488.628 170.719 488.179 171.824 488.193H184.743C185.848 488.179 186.913 488.628 187.705 489.441C188.497 490.254 188.95 491.365 188.966 492.531V585.455C188.95 586.62 188.497 587.731 187.705 588.544C186.913 589.358 185.848 589.807 184.743 589.793V589.793Z" fill="#3F3D56"/>
	<path d="M175.623 462.816C182.263 468.875 180.166 482.897 180.166 482.897C180.166 482.897 167.305 487.095 160.665 481.036C154.026 474.977 156.122 460.955 156.122 460.955C156.122 460.955 168.984 456.757 175.623 462.816Z" fill="#3F3D56"/>
	<path d="M197.677 479.875C191.951 486.894 178.645 484.728 178.645 484.728C178.645 484.728 174.623 471.181 180.349 464.161C186.075 457.142 199.381 459.309 199.381 459.309C199.381 459.309 203.403 472.856 197.677 479.875Z" fill="#3F3D56"/>
	<path opacity="0.2" d="M228.219 495.309V510.391L128.348 509.946V495.309C128.349 494.128 128.794 492.996 129.586 492.161C130.378 491.326 131.452 490.857 132.572 490.856H223.996C225.116 490.857 226.19 491.326 226.982 492.161C227.774 492.996 228.219 494.128 228.219 495.309V495.309Z" fill="black"/>
	<path d="M238.974 504.478C238.578 505.026 238.068 505.469 237.482 505.774C236.897 506.078 236.252 506.235 235.599 506.232L124.301 505.74C123.746 505.737 123.197 505.62 122.686 505.394C122.174 505.168 121.71 504.837 121.319 504.422C120.929 504.007 120.62 503.515 120.409 502.974C120.199 502.432 120.092 501.853 120.095 501.268V501.268L120.147 488.172C120.152 486.991 120.601 485.86 121.396 485.029C122.191 484.197 123.267 483.733 124.387 483.738H124.388L235.686 484.23C236.241 484.232 236.79 484.35 237.301 484.576C237.813 484.802 238.277 485.132 238.667 485.547C239.058 485.962 239.367 486.455 239.577 486.996C239.787 487.537 239.894 488.116 239.892 488.701V488.701L239.84 501.798C239.837 502.767 239.533 503.708 238.974 504.478V504.478Z" fill="#F1262E"/>
	<path d="M167.868 482.884L167.778 506.458L189.144 506.548L189.233 482.975L167.868 482.884Z" fill="#3F3D56"/>
	<path d="M161.086 304.96C160.478 303.84 159.598 302.992 158.446 302.416C157.326 301.808 155.998 301.504 154.462 301.504C151.806 301.504 149.678 302.384 148.078 304.144C146.478 305.872 145.678 308.192 145.678 311.104C145.678 314.208 146.51 316.64 148.174 318.4C149.87 320.128 152.19 320.992 155.134 320.992C157.15 320.992 158.846 320.48 160.222 319.456C161.63 318.432 162.654 316.96 163.294 315.04H152.878V308.992H170.734V316.624C170.126 318.672 169.086 320.576 167.614 322.336C166.174 324.096 164.334 325.52 162.094 326.608C159.854 327.696 157.326 328.24 154.51 328.24C151.182 328.24 148.206 327.52 145.582 326.08C142.99 324.608 140.958 322.576 139.486 319.984C138.046 317.392 137.326 314.432 137.326 311.104C137.326 307.776 138.046 304.816 139.486 302.224C140.958 299.6 142.99 297.568 145.582 296.128C148.174 294.656 151.134 293.92 154.462 293.92C158.494 293.92 161.886 294.896 164.638 296.848C167.422 298.8 169.262 301.504 170.158 304.96H161.086ZM179.409 298.432C177.969 298.432 176.785 298.016 175.857 297.184C174.961 296.32 174.513 295.264 174.513 294.016C174.513 292.736 174.961 291.68 175.857 290.848C176.785 289.984 177.969 289.552 179.409 289.552C180.817 289.552 181.969 289.984 182.865 290.848C183.793 291.68 184.257 292.736 184.257 294.016C184.257 295.264 183.793 296.32 182.865 297.184C181.969 298.016 180.817 298.432 179.409 298.432ZM183.489 301.216V328H175.281V301.216H183.489ZM202.877 308.032H198.461V328H190.253V308.032H187.277V301.216H190.253V300.448C190.253 297.152 191.197 294.656 193.085 292.96C194.973 291.232 197.741 290.368 201.389 290.368C201.997 290.368 202.445 290.384 202.733 290.416V297.376C201.165 297.28 200.061 297.504 199.421 298.048C198.781 298.592 198.461 299.568 198.461 300.976V301.216H202.877V308.032ZM221.662 321.04V328H217.486C214.51 328 212.19 327.28 210.526 325.84C208.862 324.368 208.03 321.984 208.03 318.688V308.032H204.766V301.216H208.03V294.688H216.238V301.216H221.614V308.032H216.238V318.784C216.238 319.584 216.43 320.16 216.814 320.512C217.198 320.864 217.838 321.04 218.734 321.04H221.662ZM78.9612 376.96C78.3532 375.84 77.4732 374.992 76.3212 374.416C75.2012 373.808 73.8732 373.504 72.3372 373.504C69.6812 373.504 67.5532 374.384 65.9532 376.144C64.3532 377.872 63.5532 380.192 63.5532 383.104C63.5532 386.208 64.3852 388.64 66.0492 390.4C67.7452 392.128 70.0652 392.992 73.0092 392.992C75.0252 392.992 76.7212 392.48 78.0972 391.456C79.5052 390.432 80.5292 388.96 81.1692 387.04H70.7532V380.992H88.6092V388.624C88.0012 390.672 86.9612 392.576 85.4892 394.336C84.0492 396.096 82.2092 397.52 79.9692 398.608C77.7292 399.696 75.2012 400.24 72.3852 400.24C69.0572 400.24 66.0812 399.52 63.4572 398.08C60.8652 396.608 58.8332 394.576 57.3612 391.984C55.9212 389.392 55.2012 386.432 55.2012 383.104C55.2012 379.776 55.9212 376.816 57.3612 374.224C58.8332 371.6 60.8652 369.568 63.4572 368.128C66.0492 366.656 69.0092 365.92 72.3372 365.92C76.3692 365.92 79.7612 366.896 82.5132 368.848C85.2972 370.8 87.1372 373.504 88.0332 376.96H78.9612ZM118.404 386.176C118.404 386.944 118.356 387.744 118.26 388.576H99.6837C99.8117 390.24 100.34 391.52 101.268 392.416C102.228 393.28 103.396 393.712 104.772 393.712C106.82 393.712 108.244 392.848 109.044 391.12H117.78C117.332 392.88 116.516 394.464 115.332 395.872C114.18 397.28 112.724 398.384 110.964 399.184C109.204 399.984 107.236 400.384 105.06 400.384C102.436 400.384 100.1 399.824 98.0517 398.704C96.0037 397.584 94.4037 395.984 93.2517 393.904C92.0997 391.824 91.5237 389.392 91.5237 386.608C91.5237 383.824 92.0837 381.392 93.2037 379.312C94.3557 377.232 95.9557 375.632 98.0037 374.512C100.052 373.392 102.404 372.832 105.06 372.832C107.652 372.832 109.956 373.376 111.972 374.464C113.988 375.552 115.556 377.104 116.676 379.12C117.828 381.136 118.404 383.488 118.404 386.176ZM110.004 384.016C110.004 382.608 109.524 381.488 108.564 380.656C107.604 379.824 106.404 379.408 104.964 379.408C103.588 379.408 102.42 379.808 101.46 380.608C100.532 381.408 99.9557 382.544 99.7317 384.016H110.004ZM139.054 372.928C142.19 372.928 144.686 373.952 146.542 376C148.43 378.016 149.374 380.8 149.374 384.352V400H141.214V385.456C141.214 383.664 140.75 382.272 139.822 381.28C138.894 380.288 137.646 379.792 136.078 379.792C134.51 379.792 133.262 380.288 132.334 381.28C131.406 382.272 130.942 383.664 130.942 385.456V400H122.734V373.216H130.942V376.768C131.774 375.584 132.894 374.656 134.302 373.984C135.71 373.28 137.294 372.928 139.054 372.928ZM180.326 386.176C180.326 386.944 180.278 387.744 180.182 388.576H161.606C161.734 390.24 162.262 391.52 163.19 392.416C164.15 393.28 165.318 393.712 166.694 393.712C168.742 393.712 170.166 392.848 170.966 391.12H179.702C179.254 392.88 178.438 394.464 177.254 395.872C176.102 397.28 174.646 398.384 172.886 399.184C171.126 399.984 169.158 400.384 166.982 400.384C164.358 400.384 162.022 399.824 159.974 398.704C157.926 397.584 156.326 395.984 155.174 393.904C154.022 391.824 153.446 389.392 153.446 386.608C153.446 383.824 154.006 381.392 155.126 379.312C156.278 377.232 157.878 375.632 159.926 374.512C161.974 373.392 164.326 372.832 166.982 372.832C169.574 372.832 171.878 373.376 173.894 374.464C175.91 375.552 177.478 377.104 178.598 379.12C179.75 381.136 180.326 383.488 180.326 386.176ZM171.926 384.016C171.926 382.608 171.446 381.488 170.486 380.656C169.526 379.824 168.326 379.408 166.886 379.408C165.51 379.408 164.342 379.808 163.382 380.608C162.454 381.408 161.878 382.544 161.654 384.016H171.926ZM192.864 377.68C193.824 376.208 195.024 375.056 196.464 374.224C197.904 373.36 199.504 372.928 201.264 372.928V381.616H199.008C196.96 381.616 195.424 382.064 194.4 382.96C193.376 383.824 192.864 385.36 192.864 387.568V400H184.656V373.216H192.864V377.68ZM203.555 386.56C203.555 383.808 204.067 381.392 205.091 379.312C206.147 377.232 207.571 375.632 209.363 374.512C211.155 373.392 213.155 372.832 215.363 372.832C217.251 372.832 218.899 373.216 220.307 373.984C221.747 374.752 222.851 375.76 223.619 377.008V373.216H231.827V400H223.619V396.208C222.819 397.456 221.699 398.464 220.259 399.232C218.851 400 217.203 400.384 215.315 400.384C213.139 400.384 211.155 399.824 209.363 398.704C207.571 397.552 206.147 395.936 205.091 393.856C204.067 391.744 203.555 389.312 203.555 386.56ZM223.619 386.608C223.619 384.56 223.043 382.944 221.891 381.76C220.771 380.576 219.395 379.984 217.763 379.984C216.131 379.984 214.739 380.576 213.587 381.76C212.467 382.912 211.907 384.512 211.907 386.56C211.907 388.608 212.467 390.24 213.587 391.456C214.739 392.64 216.131 393.232 217.763 393.232C219.395 393.232 220.771 392.64 221.891 391.456C223.043 390.272 223.619 388.656 223.619 386.608ZM252.693 393.04V400H248.517C245.541 400 243.221 399.28 241.557 397.84C239.893 396.368 239.061 393.984 239.061 390.688V380.032H235.797V373.216H239.061V366.688H247.269V373.216H252.645V380.032H247.269V390.784C247.269 391.584 247.461 392.16 247.845 392.512C248.229 392.864 248.869 393.04 249.765 393.04H252.693ZM269.457 400.384C266.833 400.384 264.465 399.824 262.353 398.704C260.273 397.584 258.625 395.984 257.409 393.904C256.225 391.824 255.633 389.392 255.633 386.608C255.633 383.856 256.241 381.44 257.457 379.36C258.673 377.248 260.337 375.632 262.449 374.512C264.561 373.392 266.929 372.832 269.553 372.832C272.177 372.832 274.545 373.392 276.657 374.512C278.769 375.632 280.433 377.248 281.649 379.36C282.865 381.44 283.473 383.856 283.473 386.608C283.473 389.36 282.849 391.792 281.601 393.904C280.385 395.984 278.705 397.584 276.561 398.704C274.449 399.824 272.081 400.384 269.457 400.384ZM269.457 393.28C271.025 393.28 272.353 392.704 273.441 391.552C274.561 390.4 275.121 388.752 275.121 386.608C275.121 384.464 274.577 382.816 273.489 381.664C272.433 380.512 271.121 379.936 269.553 379.936C267.953 379.936 266.625 380.512 265.569 381.664C264.513 382.784 263.985 384.432 263.985 386.608C263.985 388.752 264.497 390.4 265.521 391.552C266.577 392.704 267.889 393.28 269.457 393.28ZM296.036 377.68C296.996 376.208 298.196 375.056 299.636 374.224C301.076 373.36 302.676 372.928 304.436 372.928V381.616H302.18C300.132 381.616 298.596 382.064 297.572 382.96C296.548 383.824 296.036 385.36 296.036 387.568V400H287.828V373.216H296.036V377.68Z" fill="#FC5A6D"/>
</svg>
