<svg width="335" height="345" viewBox="0 0 335 345" fill="none" xmlns="http://www.w3.org/2000/svg">
<g clip-path="url(#clip0_1_145)" filter="url(#filter0_d_1_145)">
<path d="M161.166 315.491L160.71 307.078C160.667 307.057 160.624 307.037 160.581 307.016C156.124 304.934 151.046 308.767 152.487 313.105C153.843 317.186 154.762 321.588 157.225 325.154C158.681 327.225 160.635 328.973 162.942 330.27C165.249 331.567 167.851 332.378 170.555 332.644L176.219 335.737C176.976 331.835 176.786 327.833 175.662 324.006C174.538 320.179 172.508 316.618 169.71 313.569C168.122 311.872 166.303 310.362 164.296 309.076C162.958 312.3 161.166 315.491 161.166 315.491Z" fill="#F2F2F2"/>
<path d="M110.173 230.332C99.2468 220.268 83.4566 214.542 66.8507 214.622L66.2101 214.626C55.2723 214.683 44.5169 212.118 35.0442 207.195L34.0584 206.683L34.8468 205.943C39.1148 201.922 42.6727 197.334 45.3958 192.339C43.4527 193.989 41.1316 195.234 38.5969 195.985C36.0621 196.737 33.3757 196.977 30.7278 196.689C27.9323 196.402 25.2458 195.548 22.8697 194.191C20.4937 192.833 18.4898 191.008 17.0084 188.852C11.1635 180.387 4.18703 168.369 4.14277 159.189C4.1144 151.429 5.87895 143.747 9.32394 136.634C12.7689 129.52 17.8188 123.13 24.1517 117.871C28.1611 114.578 31.3569 110.561 33.5308 106.081C35.7046 101.602 36.8077 96.7601 36.7681 91.8722L36.7615 91.1766C36.7294 84.7412 37.5705 78.3256 39.266 72.0729L39.4382 71.4415L40.1576 71.4607C44.7972 71.5807 49.4369 71.2077 53.9808 70.3493C49.7125 69.8979 45.5344 68.917 41.5649 67.4343L40.7897 67.1556L41.0489 66.4392C59.1044 56.2424 99.9961 61.2806 123.48 12.2215C142.523 -27.5588 210.747 47.0323 210.956 90.3369C210.977 94.7556 206.157 100.618 209.8 103.521C249.191 134.903 222.215 155.307 213.777 175.748C211.775 180.598 216.192 185.89 216.218 191.126C216.222 192.015 216.201 192.932 216.156 193.853L216.087 195.268L214.775 194.489C212.18 192.973 209.772 191.209 207.593 189.23C209.866 193.889 210.951 198.95 210.768 204.04C210.585 209.129 209.14 214.118 206.537 218.64C202.459 225.659 198.505 230.689 194.785 233.59C182.869 242.879 167.473 247.715 151.745 247.109C136.017 246.504 121.146 240.502 110.173 230.332Z" fill="#E6E6E6"/>
<path d="M176.374 335.321C176.641 335.319 176.899 335.231 177.1 335.072C177.301 334.913 177.432 334.693 177.469 334.454C177.514 334.155 181.994 304.05 177.648 264.089C173.634 227.184 161.059 174.061 123.945 130.56C123.856 130.456 123.746 130.368 123.619 130.303C123.493 130.237 123.353 130.194 123.208 130.177C123.063 130.16 122.916 130.169 122.775 130.203C122.634 130.238 122.502 130.297 122.386 130.377C122.27 130.458 122.173 130.558 122.1 130.672C122.027 130.786 121.98 130.912 121.961 131.043C121.942 131.174 121.952 131.306 121.99 131.434C122.028 131.561 122.094 131.68 122.183 131.784C158.976 174.909 171.45 227.642 175.436 264.287C179.757 304.015 175.312 333.885 175.267 334.183C175.245 334.325 175.258 334.47 175.303 334.607C175.349 334.745 175.427 334.872 175.532 334.98C175.637 335.088 175.767 335.174 175.912 335.233C176.057 335.292 176.215 335.322 176.374 335.321Z" fill="#3F3D56"/>
<path d="M145.568 192.068C145.803 192.067 146.031 191.999 146.22 191.873C146.41 191.748 146.55 191.572 146.622 191.37C146.694 191.169 146.693 190.952 146.619 190.751C146.546 190.55 146.404 190.375 146.213 190.251C146.079 190.164 132.537 181.457 112.322 174.889C93.6353 168.819 65.2375 163.371 36.0706 171.895C35.9315 171.936 35.8026 172.001 35.6912 172.086C35.5799 172.171 35.4882 172.276 35.4216 172.393C35.3549 172.51 35.3146 172.638 35.3028 172.77C35.291 172.901 35.3081 173.033 35.353 173.158C35.3979 173.284 35.4698 173.4 35.5645 173.5C35.6592 173.6 35.775 173.683 35.9051 173.742C36.0352 173.802 36.1771 173.838 36.3228 173.848C36.4684 173.859 36.6149 173.843 36.7538 173.802C65.3231 165.453 93.2062 170.811 111.567 176.776C131.493 183.249 144.782 191.794 144.914 191.879C145.104 192.003 145.333 192.069 145.568 192.068Z" fill="#3F3D56"/>
<path d="M195.884 77.5647C195.9 77.3535 195.841 77.1432 195.716 76.9639C195.592 76.7846 195.407 76.6456 195.189 76.5668C194.972 76.488 194.732 76.4734 194.504 76.5252C194.276 76.577 194.073 76.6925 193.922 76.8551C193.816 76.9697 183.197 88.5331 174.458 106.25C166.381 122.629 158.282 147.787 165.58 174.629C165.65 174.887 165.831 175.109 166.083 175.247C166.335 175.384 166.638 175.426 166.924 175.362C167.21 175.299 167.457 175.135 167.61 174.908C167.763 174.68 167.809 174.408 167.739 174.15C160.591 147.857 168.552 123.156 176.489 107.064C185.103 89.5993 195.523 78.2517 195.627 78.1391C195.778 77.9769 195.868 77.7758 195.884 77.5647Z" fill="#3F3D56"/>
<path d="M194.628 129.256C195.599 136.074 200.868 141.675 208.492 141.638C212.153 141.62 215.657 140.292 218.235 137.945C220.812 135.598 222.251 132.424 222.235 129.123C222.202 122.247 215.966 117.339 208.372 116.74C200.314 116.105 193.382 120.502 194.628 129.256Z" fill="#2F2E41"/>
<path d="M215.791 329.648L221.048 329.622L223.46 311.324L215.702 311.362L215.791 329.648Z" fill="#FFB6B6"/>
<path d="M215.631 334.594L231.795 334.515L231.794 334.331C231.786 332.826 231.117 331.386 229.932 330.328C228.747 329.269 227.144 328.679 225.475 328.687L225.475 328.687L222.512 326.681L217.013 328.728L215.602 328.735L215.631 334.594Z" fill="#2F2E41"/>
<path d="M195.087 329.747L200.343 329.722L202.755 311.424L194.997 311.462L195.087 329.747Z" fill="#FFB6B6"/>
<path d="M194.926 334.694L211.09 334.615L211.089 334.431C211.082 332.926 210.412 331.486 209.227 330.428C208.042 329.369 206.439 328.779 204.77 328.787L204.77 328.787L201.807 326.781L196.308 328.828L194.897 328.835L194.926 334.694Z" fill="#2F2E41"/>
<path d="M233.328 215.035L237.1 226.508L232.956 275.197C232.956 275.197 235.226 278.229 233.633 278.237C232.04 278.245 230.001 278.929 231.297 280.74C232.592 282.551 228.226 289.097 228.226 289.097L222.172 323.78L214.246 323.712C214.246 323.712 210.207 321.707 212.458 319.649C214.71 317.591 216.302 317.583 214.17 315.678C212.037 313.773 212.04 314.35 212.032 312.865C212.025 311.379 209.81 293.236 214.822 286.249L213.165 257.865L209.719 285.731L202.525 322.917L194.889 322.897C194.889 322.897 191.348 319.848 191.343 317.579C191.339 315.31 193.51 315.111 191.887 313.776C190.263 312.442 190.164 291.823 194.887 280.339C194.887 280.339 197.559 273.923 194.839 271.741C192.119 269.56 194.813 267.036 194.813 267.036C194.813 267.036 199.097 265.617 194.783 261.607C190.469 257.598 194.603 229.073 194.603 229.073C194.603 229.073 189.853 217.59 194.586 213.043C199.318 208.496 233.328 215.035 233.328 215.035Z" fill="#2F2E41"/>
<path d="M167.234 235.152L173.795 220.669L179.032 223.261L175.948 237.977C176.268 238.907 176.295 239.899 176.024 240.843C175.753 241.786 175.197 242.642 174.416 243.316C173.636 243.99 172.662 244.454 171.606 244.657C170.549 244.86 169.451 244.792 168.435 244.463C167.419 244.134 166.526 243.555 165.855 242.793C165.184 242.03 164.762 241.113 164.638 240.146C164.513 239.179 164.69 238.199 165.148 237.317C165.607 236.435 166.329 235.685 167.234 235.152Z" fill="#FFB6B6"/>
<path d="M277.946 120.34L267.918 133.109L263.47 129.514L270.171 115.807C270.092 114.836 270.316 113.864 270.816 113C271.316 112.137 272.074 111.416 273.003 110.919C273.933 110.422 274.997 110.169 276.077 110.187C277.156 110.206 278.209 110.496 279.115 111.024C280.022 111.553 280.747 112.299 281.208 113.179C281.67 114.059 281.85 115.038 281.729 116.006C281.607 116.974 281.189 117.892 280.521 118.658C279.852 119.423 278.961 120.006 277.946 120.34Z" fill="#FFB6B6"/>
<path d="M234.335 216.208C240.923 225.331 208.086 237.106 195.442 232.503C193.228 231.697 185.613 229.037 190.792 225.272C195.97 221.507 190.169 221.009 190.02 218.575C189.92 216.948 191.3 213.371 189.843 213.531C188.386 213.691 186.669 211.449 189.839 210.465C193.01 209.481 189.864 208.613 189.888 207.693C190.143 197.658 198.602 181.658 198.602 181.658L183.392 217.191C183.392 217.191 183.535 223.325 181.565 221.459C179.595 219.594 179.766 225.661 179.766 225.661C179.766 225.661 176.859 227.511 178.541 228.524C180.223 229.538 176.755 232.695 176.755 232.695L168.627 232.211C168.627 232.211 168.728 226.766 170.109 225.556C171.491 224.345 170.8 222.454 170.8 222.454C170.8 222.454 174.399 219.552 171.966 217.222C168.836 214.225 179.948 163.303 183.869 163.788C184.412 161.353 185.69 159.1 187.562 157.278C189.435 155.457 191.829 154.137 194.48 153.465L203.247 151.243L204.778 145.659L217.137 145.599L219.307 149.253L228.721 153.032C230.48 150.772 231.791 148.392 239.035 147.588C239.035 147.588 258.485 131.47 257.526 130.223C256.566 128.977 259.579 126.033 259.579 126.033C259.579 126.033 262.161 125.257 260.7 124.857C259.24 124.456 261.992 123.501 261.992 123.501C261.992 123.501 264.543 122.884 263.335 122.092C262.127 121.301 267.348 120.753 267.348 120.753L274.15 125.708L272.79 127.809C272.79 127.809 273.639 130.658 272.544 129.622C271.449 128.585 271.258 131.609 271.258 131.609C271.258 131.609 270.718 134.921 267.421 135.934C264.125 136.947 261.667 146.432 261.667 146.432C253.926 155.599 244.772 162.765 233.907 167.506C238.171 171.878 234.335 216.208 234.335 216.208Z" fill="#F1262E"/>
<path d="M210.021 142.37C216.781 142.337 222.238 137.369 222.208 131.272C222.179 125.175 216.675 120.259 209.915 120.292C203.155 120.324 197.698 125.293 197.728 131.39C197.757 137.487 203.261 142.403 210.021 142.37Z" fill="#FFB6B6"/>
<path d="M197.299 132.595C197.698 134.992 199.981 138.327 199.45 138.33C198.92 138.333 195.097 128.462 198.869 127.799C201.604 127.318 202.218 127.725 204.773 126.712L204.413 127.02C206.112 128.123 208.466 127.427 210.395 126.695C212.329 125.967 214.678 125.271 216.382 126.369C217.452 127.058 217.909 128.263 218.578 129.284C219.247 130.31 220.478 131.276 221.74 130.954C222.752 130.696 223.331 129.668 223.322 128.72C223.312 127.772 221.939 126.877 222.395 126.024C223.749 123.497 222.513 121.785 219.529 120.613C218.445 120.47 217.361 120.323 216.278 120.174C216.842 119.462 217.527 118.835 218.307 118.316C217.973 117.552 217.398 116.894 216.652 116.423C215.785 115.963 214.713 116.001 213.709 116.054C211.47 116.17 209.231 116.286 206.995 116.402C205.339 116.487 203.625 116.586 202.147 117.278C200.303 118.144 199.101 119.821 198.228 121.525C196.271 125.355 196.599 128.428 197.299 132.595Z" fill="#2F2E41"/>
<path d="M147.361 336.167L267.743 335.733C267.91 335.733 268.071 335.672 268.189 335.564C268.307 335.457 268.373 335.311 268.372 335.16C268.371 335.009 268.304 334.864 268.185 334.758C268.066 334.652 267.905 334.592 267.737 334.593L147.355 335.026C147.188 335.027 147.027 335.088 146.909 335.196C146.791 335.303 146.725 335.448 146.726 335.6C146.727 335.751 146.794 335.895 146.913 336.002C147.032 336.108 147.193 336.167 147.361 336.167Z" fill="#CACACA"/>
<path d="M103.582 286.681C103.798 285.304 102.194 283.964 99.9996 283.687C97.8057 283.409 95.8525 284.301 95.6373 285.677C95.422 287.054 97.026 288.395 99.22 288.672C101.414 288.949 103.367 288.058 103.582 286.681Z" fill="#E6E6E6"/>
<path d="M129.676 284.258C129.892 282.881 128.288 281.541 126.094 281.263C123.9 280.986 121.947 281.878 121.731 283.254C121.516 284.631 123.12 285.972 125.314 286.249C127.508 286.526 129.461 285.635 129.676 284.258Z" fill="#3F3D56"/>
<path d="M96.3421 267.655C96.5574 266.279 94.9534 264.938 92.7594 264.661C90.5654 264.384 88.6124 265.275 88.3971 266.652C88.1818 268.028 89.7858 269.369 91.9798 269.646C94.1737 269.923 96.1268 269.032 96.3421 267.655Z" fill="#FF6584"/>
<path d="M84.9611 259.903C84.9656 258.64 84.1796 257.614 83.2055 257.612C82.2314 257.61 81.438 258.633 81.4335 259.896C81.429 261.158 82.2151 262.184 83.1892 262.186C84.1633 262.188 84.9566 261.166 84.9611 259.903Z" fill="#E6E6E6"/>
<path d="M81.0443 245.379C81.0488 244.116 80.2628 243.091 79.2887 243.089C78.3145 243.087 77.5212 244.109 77.5167 245.372C77.5122 246.635 78.2982 247.66 79.2724 247.662C80.2465 247.664 81.0398 246.642 81.0443 245.379Z" fill="#3F3D56"/>
<path d="M111.081 270.828C111.086 269.565 110.3 268.54 109.326 268.538C108.351 268.536 107.558 269.558 107.554 270.821C107.549 272.084 108.335 273.109 109.309 273.111C110.283 273.113 111.077 272.091 111.081 270.828Z" fill="#E6E6E6"/>
<path d="M98.4935 276.569C98.498 275.306 97.7119 274.281 96.7378 274.279C95.7637 274.277 94.9704 275.299 94.9659 276.562C94.9614 277.825 95.7474 278.85 96.7215 278.852C97.6956 278.854 98.489 277.832 98.4935 276.569Z" fill="#FF6584"/>
<path d="M116.105 286.984C116.109 285.721 115.323 284.695 114.349 284.693C113.375 284.691 112.582 285.714 112.577 286.977C112.573 288.239 113.359 289.265 114.333 289.267C115.307 289.269 116.1 288.246 116.105 286.984Z" fill="#3F3D56"/>
<path d="M303.906 211.978C304.121 210.601 302.517 209.261 300.323 208.984C298.13 208.706 296.176 209.598 295.961 210.974C295.746 212.351 297.35 213.692 299.544 213.969C301.738 214.246 303.691 213.355 303.906 211.978Z" fill="#E6E6E6"/>
<path d="M330 209.555C330.215 208.178 328.611 206.838 326.417 206.56C324.223 206.283 322.27 207.175 322.055 208.551C321.84 209.928 323.444 211.269 325.638 211.546C327.832 211.823 329.785 210.932 330 209.555Z" fill="#3F3D56"/>
<path d="M296.666 192.952C296.881 191.576 295.277 190.235 293.083 189.958C290.889 189.681 288.936 190.572 288.721 191.949C288.505 193.325 290.109 194.666 292.303 194.943C294.497 195.22 296.45 194.329 296.666 192.952Z" fill="#FF6584"/>
<path d="M285.285 185.2C285.29 183.937 284.503 182.911 283.529 182.909C282.555 182.908 281.762 183.93 281.757 185.193C281.753 186.456 282.539 187.481 283.513 187.483C284.487 187.485 285.281 186.463 285.285 185.2Z" fill="#E6E6E6"/>
<path d="M281.368 170.676C281.373 169.413 280.587 168.388 279.613 168.386C278.638 168.384 277.845 169.406 277.841 170.669C277.836 171.932 278.622 172.957 279.596 172.959C280.57 172.961 281.364 171.939 281.368 170.676Z" fill="#3F3D56"/>
<path d="M311.405 196.125C311.41 194.862 310.623 193.837 309.649 193.835C308.675 193.833 307.882 194.855 307.877 196.118C307.873 197.381 308.659 198.406 309.633 198.408C310.607 198.41 311.401 197.388 311.405 196.125Z" fill="#E6E6E6"/>
<path d="M298.817 201.866C298.822 200.603 298.036 199.578 297.062 199.576C296.088 199.574 295.294 200.596 295.29 201.859C295.285 203.122 296.071 204.147 297.045 204.149C298.02 204.151 298.813 203.129 298.817 201.866Z" fill="#FF6584"/>
<path d="M316.429 212.281C316.433 211.018 315.647 209.992 314.673 209.99C313.699 209.988 312.905 211.011 312.901 212.274C312.896 213.536 313.683 214.562 314.657 214.564C315.631 214.566 316.424 213.544 316.429 212.281Z" fill="#3F3D56"/>
<path d="M206.094 75.9878C206.309 74.6112 204.705 73.2705 202.511 72.9934C200.317 72.7162 198.364 73.6076 198.149 74.9842C197.934 76.3609 199.538 77.7016 201.732 77.9787C203.926 78.2559 205.879 77.3645 206.094 75.9878Z" fill="white"/>
<path d="M232.188 73.5647C232.403 72.188 230.799 70.8473 228.605 70.5702C226.411 70.2931 224.458 71.1844 224.243 72.5611C224.028 73.9377 225.632 75.2784 227.826 75.5555C230.02 75.8327 231.973 74.9413 232.188 73.5647Z" fill="#3F3D56"/>
<path d="M198.854 56.9621C199.069 55.5854 197.465 54.2447 195.271 53.9676C193.077 53.6904 191.124 54.5818 190.909 55.9584C190.694 57.3351 192.298 58.6758 194.492 58.9529C196.686 59.2301 198.639 58.3387 198.854 56.9621Z" fill="#FF6584"/>
<path d="M187.473 49.2094C187.477 47.9465 186.691 46.9211 185.717 46.9192C184.743 46.9172 183.95 47.9394 183.945 49.2023C183.941 50.4653 184.727 51.4906 185.701 51.4926C186.675 51.4945 187.468 50.4723 187.473 49.2094Z" fill="#E6E6E6"/>
<path d="M183.556 34.6859C183.561 33.423 182.774 32.3977 181.8 32.3957C180.826 32.3938 180.033 33.416 180.028 34.6789C180.024 35.9418 180.81 36.9672 181.784 36.9691C182.758 36.9711 183.552 35.9489 183.556 34.6859Z" fill="#3F3D56"/>
<path d="M213.593 60.1346C213.597 58.8717 212.811 57.8464 211.837 57.8444C210.863 57.8425 210.07 58.8647 210.065 60.1276C210.061 61.3905 210.847 62.4159 211.821 62.4178C212.795 62.4198 213.588 61.3976 213.593 60.1346Z" fill="#E6E6E6"/>
<path d="M201.005 65.8759C201.01 64.613 200.224 63.5877 199.25 63.5858C198.275 63.5838 197.482 64.606 197.478 65.8689C197.473 67.1318 198.259 68.1572 199.233 68.1591C200.207 68.1611 201.001 67.1389 201.005 65.8759Z" fill="#FF6584"/>
<path d="M218.616 76.2903C218.621 75.0274 217.835 74.0021 216.861 74.0001C215.887 73.9982 215.093 75.0204 215.089 76.2833C215.084 77.5462 215.87 78.5716 216.844 78.5735C217.819 78.5755 218.612 77.5532 218.616 76.2903Z" fill="#3F3D56"/>
<path d="M123.265 280.96L123.262 330.81C123.261 331.467 122.996 332.096 122.526 332.561C122.055 333.025 121.417 333.287 120.752 333.288L66.412 333.291C65.7467 333.29 65.1091 333.028 64.6386 332.564C64.1682 332.099 63.9033 331.47 63.9019 330.813L63.9044 280.963C63.9049 280.306 64.1696 279.676 64.6403 279.212C65.1109 278.747 65.7492 278.486 66.4148 278.485L120.755 278.483C121.421 278.483 122.059 278.744 122.529 279.209C123 279.673 123.265 280.303 123.265 280.96Z" fill="#F1262E"/>
<path d="M97.421 333.54L89.7425 333.541C89.0856 333.548 88.4524 333.298 87.9819 332.846C87.5113 332.393 87.2418 331.775 87.2323 331.127L87.235 279.416C87.2445 278.768 87.5141 278.149 87.9847 277.697C88.4553 277.244 89.0884 276.995 89.7454 277.002L97.4239 277.002C98.0808 276.994 98.7139 277.244 99.1845 277.696C99.655 278.149 99.9246 278.767 99.934 279.416L99.9314 331.126C99.9219 331.775 99.6523 332.393 99.1817 332.845C98.7111 333.298 98.0779 333.548 97.421 333.54Z" fill="#3F3D56"/>
<path d="M92.0043 262.88C95.9505 266.252 94.704 274.055 94.704 274.055C94.704 274.055 87.0594 276.392 83.1132 273.02C79.1669 269.649 80.4135 261.846 80.4135 261.846C80.4135 261.846 88.0581 259.509 92.0043 262.88Z" fill="#3F3D56"/>
<path d="M105.112 272.373C101.708 276.279 93.7996 275.074 93.7996 275.074C93.7996 275.074 91.4093 267.535 94.8128 263.629C98.2164 259.723 106.125 260.928 106.125 260.928C106.125 260.928 108.516 268.467 105.112 272.373Z" fill="#3F3D56"/>
<path opacity="0.2" d="M123.265 280.96L123.265 289.353L63.904 289.108L63.9044 280.963C63.9049 280.306 64.1696 279.676 64.6403 279.212C65.1109 278.747 65.7492 278.486 66.4148 278.485L120.755 278.483C121.421 278.483 122.059 278.744 122.529 279.209C123 279.673 123.265 280.303 123.265 280.96Z" fill="black"/>
<path d="M129.657 286.063C129.422 286.367 129.118 286.614 128.77 286.784C128.422 286.953 128.039 287.04 127.651 287.039L61.4982 286.768C61.1685 286.767 60.8424 286.701 60.5384 286.576C60.2344 286.45 59.9584 286.266 59.7263 286.035C59.4942 285.804 59.3104 285.53 59.1856 285.229C59.0607 284.928 58.9972 284.605 58.9985 284.28L59.0299 276.992C59.0327 276.335 59.2998 275.706 59.7724 275.243C60.2451 274.78 60.8845 274.522 61.5502 274.525L61.5509 274.525L127.703 274.795C128.033 274.796 128.359 274.862 128.663 274.988C128.967 275.113 129.243 275.297 129.475 275.528C129.707 275.759 129.891 276.033 130.016 276.334C130.141 276.635 130.204 276.958 130.203 277.283L130.172 284.571C130.17 285.11 129.989 285.634 129.657 286.063Z" fill="#F1262E"/>
<path d="M87.3942 274.048L87.3403 287.167L100.039 287.216L100.093 274.098L87.3942 274.048Z" fill="#3F3D56"/>
</g>
<defs>
<filter id="filter0_d_1_145" x="-0.617065" y="0" width="335.245" height="345" filterUnits="userSpaceOnUse" color-interpolation-filters="sRGB">
<feFlood flood-opacity="0" result="BackgroundImageFix"/>
<feColorMatrix in="SourceAlpha" type="matrix" values="0 0 0 0 0 0 0 0 0 0 0 0 0 0 0 0 0 0 127 0" result="hardAlpha"/>
<feOffset dy="4"/>
<feGaussianBlur stdDeviation="2"/>
<feComposite in2="hardAlpha" operator="out"/>
<feColorMatrix type="matrix" values="0 0 0 0 0 0 0 0 0 0 0 0 0 0 0 0 0 0 0.25 0"/>
<feBlend mode="normal" in2="BackgroundImageFix" result="effect1_dropShadow_1_145"/>
<feBlend mode="normal" in="SourceGraphic" in2="effect1_dropShadow_1_145" result="shape"/>
</filter>
<clipPath id="clip0_1_145">
<rect width="325.631" height="335.434" fill="white" transform="translate(3.38293 1.56976) rotate(-0.276205)"/>
</clipPath>
</defs>
</svg>
