<svg width="92" height="82" viewBox="0 0 92 82" fill="none" xmlns="http://www.w3.org/2000/svg">
<path d="M67.6532 28.3041V65.974C67.6521 66.4703 67.454 66.9459 67.1022 67.2969C66.7504 67.6478 66.2736 67.8454 65.7761 67.8465H25.143C24.6455 67.8454 24.1687 67.6478 23.8169 67.2969C23.4651 66.9459 23.267 66.4703 23.2659 65.974V28.3041C23.2663 27.8076 23.4642 27.3316 23.8161 26.9805C24.168 26.6294 24.6453 26.432 25.143 26.4317H65.7761C66.2739 26.432 66.7511 26.6294 67.1031 26.9805C67.455 27.3316 67.6529 27.8076 67.6532 28.3041Z" fill="#F1262E"/>
<path d="M48.3302 68.0359H42.5885C42.0973 68.0417 41.6238 67.8529 41.272 67.511C40.9201 67.169 40.7185 66.7018 40.7114 66.2118V27.1359C40.7185 26.6459 40.9201 26.1787 41.272 25.8368C41.6238 25.4948 42.0973 25.306 42.5885 25.3118H48.3302C48.8214 25.306 49.2948 25.4948 49.6467 25.8368C49.9986 26.1787 50.2001 26.6459 50.2072 27.1359V66.2118C50.2001 66.7018 49.9986 67.169 49.6467 67.5109C49.2948 67.8529 48.8214 68.0417 48.3302 68.0359Z" fill="#3F3D56"/>
<path d="M44.2771 14.6406C47.228 17.1885 46.2962 23.0849 46.2962 23.0849C46.2962 23.0849 40.58 24.8505 37.6291 22.3025C34.6781 19.7546 35.61 13.8582 35.61 13.8582C35.61 13.8582 41.3261 12.0927 44.2771 14.6406Z" fill="#3F3D56"/>
<path d="M54.0787 21.8142C51.5338 24.7659 45.62 23.8548 45.62 23.8548C45.62 23.8548 43.8323 18.1581 46.3772 15.2064C48.9221 12.2548 54.836 13.1659 54.836 13.1659C54.836 13.1659 56.6237 18.8626 54.0787 21.8142Z" fill="#3F3D56"/>
<path opacity="0.2" d="M67.6532 28.3041V34.6463L23.2659 34.4591V28.3041C23.2663 27.8076 23.4642 27.3316 23.8161 26.9805C24.168 26.6294 24.6453 26.432 25.143 26.4317H65.7761C66.2738 26.432 66.7511 26.6294 67.1031 26.9805C67.455 27.3315 67.6529 27.8076 67.6532 28.3041Z" fill="black"/>
<path d="M72.4328 32.16C72.257 32.3903 72.0301 32.5769 71.7698 32.7048C71.5096 32.8328 71.223 32.8988 70.9329 32.8975L21.4669 32.6906C21.2204 32.6895 20.9765 32.6401 20.7492 32.5451C20.5218 32.45 20.3155 32.3112 20.1419 32.1366C19.9683 31.962 19.8309 31.755 19.7375 31.5274C19.6442 31.2999 19.5966 31.0562 19.5976 30.8103L19.6208 25.303C19.6229 24.8065 19.8226 24.3311 20.176 23.9815C20.5294 23.6318 21.0075 23.4365 21.5053 23.4386H21.5058L70.9717 23.6454C71.2182 23.6464 71.4621 23.6959 71.6894 23.7909C71.9167 23.886 72.1231 24.0248 72.2966 24.1994C72.4702 24.374 72.6076 24.581 72.701 24.8085C72.7944 25.0361 72.8419 25.2798 72.8409 25.5257L72.8177 31.033C72.8165 31.4405 72.6812 31.8364 72.4328 32.16Z" fill="#F1262E"/>
<path d="M40.8303 23.0796L40.7905 32.9926L50.2862 33.0306L50.326 23.1175L40.8303 23.0796Z" fill="#3F3D56"/>
</svg>
